<svg width="25" height="24" viewBox="0 0 25 24" fill="none" xmlns="http://www.w3.org/2000/svg">
<g clip-path="url(#clip0_1_892)">
<path d="M18.2673 9.55066H7.60059L6.60059 18.5507H19.2673L18.2673 9.55066Z" fill="white"/>
<path d="M19 9L20 19H6L7 9H9V8.875C9 7.8125 9.38021 6.90104 10.1406 6.14063C10.901 5.38021 11.8125 5 12.875 5H13.125C14.1875 5 15.099 5.38021 15.8594 6.14063C16.6198 6.90104 17 7.8125 17 8.875V9H19ZM10 8.875V9H16V8.875C16 8.08333 15.7188 7.40625 15.1562 6.84375C14.5938 6.28125 13.9167 6 13.125 6H12.875C12.0833 6 11.4062 6.28125 10.8438 6.84375C10.2812 7.40625 10 8.08333 10 8.875ZM7.125 18H18.875L18.0938 10H17V11.125C17.3333 11.3333 17.5 11.625 17.5 12C17.5 12.2917 17.4062 12.5313 17.2188 12.7188C17.0312 12.9063 16.7917 13 16.5 13C16.2083 13 15.9688 12.9063 15.7812 12.7188C15.5938 12.5313 15.5 12.2917 15.5 12C15.5 11.625 15.6667 11.3333 16 11.125V10H10V11.125C10.3333 11.3333 10.5 11.625 10.5 12C10.5 12.2917 10.4062 12.5313 10.2188 12.7188C10.0312 12.9063 9.79167 13 9.5 13C9.20833 13 8.96875 12.9063 8.78125 12.7188C8.59375 12.5313 8.5 12.2917 8.5 12C8.5 11.625 8.66667 11.3333 9 11.125V10H7.90625L7.125 18Z" fill="#E51515"/>
</g>
<rect x="16.9998" y="2" width="7" height="7" rx="3.5" fill="white"/>
<path d="M20.4893 6.83004C20.3053 6.83004 20.1493 6.80204 20.0213 6.74604C19.896 6.68737 19.7933 6.60737 19.7133 6.50604C19.6333 6.40471 19.5747 6.28871 19.5373 6.15804C19.5027 6.02737 19.4827 5.88871 19.4773 5.74204C19.4747 5.67004 19.472 5.59404 19.4693 5.51404C19.4693 5.43404 19.4693 5.35404 19.4693 5.27404C19.472 5.19137 19.4747 5.11271 19.4773 5.03804C19.48 4.89137 19.5 4.75271 19.5373 4.62204C19.5773 4.48871 19.636 4.37271 19.7133 4.27404C19.7933 4.17271 19.8973 4.09404 20.0253 4.03804C20.1533 3.97937 20.308 3.95004 20.4893 3.95004C20.6733 3.95004 20.828 3.97937 20.9533 4.03804C21.0813 4.09404 21.1853 4.17271 21.2653 4.27404C21.3453 4.37271 21.404 4.48871 21.4413 4.62204C21.4813 4.75271 21.5027 4.89137 21.5053 5.03804C21.508 5.11271 21.5093 5.19137 21.5093 5.27404C21.512 5.35404 21.512 5.43404 21.5093 5.51404C21.5093 5.59404 21.508 5.67004 21.5053 5.74204C21.5027 5.88871 21.4813 6.02737 21.4413 6.15804C21.404 6.28871 21.3453 6.40471 21.2653 6.50604C21.188 6.60737 21.0853 6.68737 20.9573 6.74604C20.832 6.80204 20.676 6.83004 20.4893 6.83004ZM20.4893 6.49004C20.6973 6.49004 20.8507 6.42204 20.9493 6.28604C21.0507 6.14737 21.1027 5.95937 21.1053 5.72204C21.1107 5.64471 21.1133 5.57004 21.1133 5.49804C21.1133 5.42337 21.1133 5.35004 21.1133 5.27804C21.1133 5.20337 21.1107 5.13004 21.1053 5.05804C21.1027 4.82604 21.0507 4.64071 20.9493 4.50204C20.8507 4.36071 20.6973 4.29004 20.4893 4.29004C20.284 4.29004 20.1307 4.36071 20.0293 4.50204C19.9307 4.64071 19.8787 4.82604 19.8733 5.05804C19.8733 5.13004 19.872 5.20337 19.8693 5.27804C19.8693 5.35004 19.8693 5.42337 19.8693 5.49804C19.872 5.57004 19.8733 5.64471 19.8733 5.72204C19.8787 5.95937 19.932 6.14737 20.0333 6.28604C20.1347 6.42204 20.2867 6.49004 20.4893 6.49004Z" fill="#181B23"/>
<defs>
<clipPath id="clip0_1_892">
<rect width="14" height="16" fill="white" transform="matrix(1 0 0 -1 5.99976 20)"/>
</clipPath>
</defs>
</svg>
